<?xml version="1.0" encoding="UTF-8" standalone="no"?>
<!DOCTYPE svg PUBLIC "-//W3C//DTD SVG 1.1//EN" "http://www.w3.org/Graphics/SVG/1.1/DTD/svg11.dtd">
<svg width="100%" height="100%" viewBox="0 0 96 23" version="1.1" xmlns="http://www.w3.org/2000/svg" xmlns:xlink="http://www.w3.org/1999/xlink" xml:space="preserve" xmlns:serif="http://www.serif.com/" style="fill-rule:evenodd;clip-rule:evenodd;stroke-linejoin:round;stroke-miterlimit:2;">
    <g>
        <g transform="matrix(1.41577,0,0,1,-20.067,-9.86643)">
            <rect x="34.935" y="16.34" width="0.678" height="8.94" style="fill:rgb(38,38,38);"/>
            <path d="M39.165,27.92C38.854,27.92 38.567,27.852 38.305,27.716C38.042,27.58 37.816,27.394 37.626,27.158C37.437,26.922 37.292,26.648 37.19,26.336L37.775,25.892C37.865,26.196 38.026,26.46 38.258,26.684C38.49,26.908 38.786,27.02 39.148,27.02C39.425,27.02 39.679,26.944 39.911,26.792C40.142,26.64 40.329,26.416 40.47,26.12C40.611,25.824 40.682,25.46 40.682,25.028L40.682,23.6L40.784,23.732C40.626,24.196 40.391,24.554 40.08,24.806C39.769,25.058 39.43,25.184 39.063,25.184C38.639,25.184 38.258,25.04 37.919,24.752C37.58,24.464 37.313,24.074 37.118,23.582C36.923,23.09 36.825,22.544 36.825,21.944C36.825,21.336 36.923,20.788 37.118,20.3C37.313,19.812 37.578,19.424 37.915,19.136C38.251,18.848 38.634,18.704 39.063,18.704C39.43,18.704 39.765,18.824 40.068,19.064C40.37,19.304 40.609,19.628 40.784,20.036L40.682,20.288L40.682,18.848L41.318,18.848L41.318,25.028C41.318,25.58 41.226,26.074 41.042,26.51C40.859,26.946 40.604,27.29 40.279,27.542C39.955,27.794 39.583,27.92 39.165,27.92ZM39.097,24.284C39.391,24.284 39.656,24.178 39.894,23.966C40.131,23.754 40.322,23.47 40.466,23.114C40.61,22.758 40.682,22.368 40.682,21.944C40.682,21.52 40.61,21.13 40.466,20.774C40.322,20.418 40.131,20.134 39.894,19.922C39.656,19.71 39.391,19.604 39.097,19.604C38.798,19.604 38.526,19.71 38.283,19.922C38.04,20.134 37.85,20.416 37.711,20.768C37.573,21.12 37.504,21.512 37.504,21.944C37.504,22.368 37.573,22.758 37.711,23.114C37.85,23.47 38.039,23.754 38.279,23.966C38.519,24.178 38.792,24.284 39.097,24.284Z" style="fill:rgb(38,38,38);fill-rule:nonzero;"/>
            <path d="M42.623,25.28L42.623,18.848L43.259,18.848L43.259,20.096L43.115,20.048C43.228,19.632 43.413,19.304 43.67,19.064C43.927,18.824 44.225,18.704 44.564,18.704C44.886,18.704 45.176,18.808 45.433,19.016C45.69,19.224 45.893,19.51 46.043,19.874C46.193,20.238 46.268,20.648 46.268,21.104L46.268,25.28L45.632,25.28L45.632,21.452C45.632,21.06 45.583,20.728 45.484,20.456C45.385,20.184 45.246,19.974 45.068,19.826C44.89,19.678 44.685,19.604 44.454,19.604C44.222,19.604 44.016,19.678 43.835,19.826C43.654,19.974 43.513,20.186 43.411,20.462C43.31,20.738 43.259,21.068 43.259,21.452L43.259,25.28L42.623,25.28Z" style="fill:rgb(38,38,38);fill-rule:nonzero;"/>
            <path d="M47.48,25.28L47.48,18.848L48.115,18.848L48.115,25.28L47.48,25.28ZM47.48,17.66L47.48,16.34L48.115,16.34L48.115,17.66L47.48,17.66Z" style="fill:rgb(38,38,38);fill-rule:nonzero;"/>
            <path d="M51.158,25.352C50.751,25.352 50.438,25.184 50.217,24.848C49.997,24.512 49.887,24.032 49.887,23.408L49.887,19.748L49.048,19.748L49.048,18.848L49.26,18.848C49.452,18.848 49.604,18.758 49.717,18.578C49.83,18.398 49.887,18.172 49.887,17.9L49.887,17.36L50.523,17.36L50.523,18.848L51.523,18.848L51.523,19.748L50.523,19.748L50.523,23.408C50.523,23.624 50.545,23.814 50.59,23.978C50.636,24.142 50.713,24.272 50.823,24.368C50.934,24.464 51.082,24.512 51.268,24.512C51.314,24.512 51.367,24.508 51.43,24.5C51.492,24.492 51.545,24.484 51.591,24.476L51.591,25.28C51.523,25.304 51.446,25.322 51.362,25.334C51.277,25.346 51.209,25.352 51.158,25.352Z" style="fill:rgb(38,38,38);fill-rule:nonzero;"/>
            <path d="M54.608,25.424C54.184,25.424 53.801,25.278 53.459,24.986C53.118,24.694 52.848,24.292 52.65,23.78C52.452,23.268 52.353,22.688 52.353,22.04C52.353,21.392 52.449,20.818 52.642,20.318C52.834,19.818 53.095,19.424 53.426,19.136C53.756,18.848 54.128,18.704 54.54,18.704C54.868,18.704 55.16,18.79 55.417,18.962C55.675,19.134 55.893,19.366 56.074,19.658C56.255,19.95 56.394,20.278 56.49,20.642C56.586,21.006 56.634,21.38 56.634,21.764C56.634,21.844 56.631,21.934 56.625,22.034C56.62,22.134 56.611,22.236 56.6,22.34L52.76,22.34L52.76,21.5L56.235,21.5L55.93,21.86C55.981,21.42 55.946,21.026 55.824,20.678C55.703,20.33 55.529,20.054 55.303,19.85C55.077,19.646 54.823,19.544 54.54,19.544C54.258,19.544 53.996,19.648 53.756,19.856C53.516,20.064 53.328,20.354 53.193,20.726C53.057,21.098 53.003,21.54 53.031,22.052C53.003,22.564 53.061,23.01 53.205,23.39C53.349,23.77 53.547,24.064 53.799,24.272C54.05,24.48 54.32,24.584 54.608,24.584C54.941,24.584 55.221,24.472 55.447,24.248C55.673,24.024 55.857,23.744 55.998,23.408L56.54,23.816C56.45,24.104 56.312,24.37 56.125,24.614C55.939,24.858 55.717,25.054 55.46,25.202C55.203,25.35 54.919,25.424 54.608,25.424Z" style="fill:rgb(38,38,38);fill-rule:nonzero;"/>
            <path d="M59.804,25.424C59.38,25.424 58.999,25.278 58.659,24.986C58.32,24.694 58.053,24.294 57.859,23.786C57.664,23.278 57.566,22.704 57.566,22.064C57.566,21.416 57.664,20.84 57.859,20.336C58.053,19.832 58.319,19.434 58.655,19.142C58.991,18.85 59.374,18.704 59.804,18.704C60.194,18.704 60.541,18.824 60.846,19.064C61.151,19.304 61.392,19.628 61.567,20.036L61.465,20.288L61.465,16.196L62.101,16.196L62.101,25.28L61.465,25.28L61.465,23.84L61.567,23.972C61.409,24.436 61.173,24.794 60.859,25.046C60.545,25.298 60.194,25.424 59.804,25.424ZM59.838,24.524C60.143,24.524 60.418,24.416 60.664,24.2C60.91,23.984 61.105,23.69 61.249,23.318C61.393,22.946 61.465,22.528 61.465,22.064C61.465,21.6 61.393,21.182 61.249,20.81C61.105,20.438 60.91,20.144 60.664,19.928C60.418,19.712 60.143,19.604 59.838,19.604C59.538,19.604 59.267,19.712 59.024,19.928C58.781,20.144 58.59,20.436 58.452,20.804C58.313,21.172 58.244,21.592 58.244,22.064C58.244,22.528 58.313,22.946 58.452,23.318C58.59,23.69 58.78,23.984 59.02,24.2C59.26,24.416 59.532,24.524 59.838,24.524Z" style="fill:rgb(38,38,38);fill-rule:nonzero;"/>
            <path d="M66.347,25.424C65.901,25.424 65.487,25.308 65.105,25.076C64.724,24.844 64.393,24.522 64.114,24.11C63.834,23.698 63.615,23.212 63.457,22.652C63.299,22.092 63.22,21.476 63.22,20.804C63.22,20.14 63.297,19.526 63.453,18.962C63.608,18.398 63.827,17.91 64.109,17.498C64.392,17.086 64.723,16.766 65.101,16.538C65.48,16.31 65.895,16.196 66.347,16.196C66.794,16.196 67.193,16.304 67.546,16.52C67.9,16.736 68.198,17.018 68.441,17.366C68.684,17.714 68.859,18.092 68.966,18.5L68.068,19.1C67.932,18.62 67.716,18.23 67.419,17.93C67.123,17.63 66.765,17.48 66.347,17.48C65.929,17.48 65.559,17.62 65.237,17.9C64.915,18.18 64.665,18.568 64.487,19.064C64.309,19.56 64.22,20.14 64.22,20.804C64.22,21.468 64.309,22.05 64.487,22.55C64.665,23.05 64.915,23.438 65.237,23.714C65.559,23.99 65.929,24.128 66.347,24.128C66.765,24.128 67.123,23.98 67.419,23.684C67.716,23.388 67.932,23 68.068,22.52L68.966,23.12C68.859,23.52 68.684,23.896 68.441,24.248C68.198,24.6 67.9,24.884 67.546,25.1C67.193,25.316 66.794,25.424 66.347,25.424Z" style="fill:rgb(38,38,38);fill-rule:nonzero;"/>
            <path d="M69.992,25.28L69.992,16.34L70.924,16.34L73.297,20.996L72.831,20.996L75.162,16.34L76.094,16.34L76.094,25.28L75.103,25.28L75.103,18.008L75.476,18.152L73.094,22.76L72.992,22.76L70.661,18.152L70.992,18.008L70.992,25.28L69.992,25.28Z" style="fill:rgb(38,38,38);fill-rule:nonzero;"/>
            <path d="M79.612,25.424C79.216,25.424 78.849,25.318 78.51,25.106C78.171,24.894 77.883,24.604 77.646,24.236C77.408,23.868 77.233,23.444 77.12,22.964L77.968,22.46C78.12,23.012 78.343,23.436 78.637,23.732C78.931,24.028 79.27,24.176 79.654,24.176C79.88,24.176 80.078,24.126 80.248,24.026C80.417,23.926 80.549,23.784 80.642,23.6C80.735,23.416 80.782,23.204 80.782,22.964C80.782,22.636 80.717,22.376 80.587,22.184C80.457,21.992 80.265,21.84 80.01,21.728L78.824,21.2C78.349,20.992 77.987,20.674 77.739,20.246C77.49,19.818 77.366,19.316 77.366,18.74C77.366,18.236 77.453,17.794 77.629,17.414C77.804,17.034 78.045,16.736 78.353,16.52C78.661,16.304 79.013,16.196 79.409,16.196C79.787,16.196 80.132,16.29 80.443,16.478C80.753,16.666 81.02,16.924 81.244,17.252C81.467,17.58 81.629,17.96 81.731,18.392L80.9,18.908C80.776,18.436 80.582,18.072 80.32,17.816C80.057,17.56 79.753,17.432 79.409,17.432C79.199,17.432 79.016,17.482 78.858,17.582C78.699,17.682 78.576,17.826 78.489,18.014C78.401,18.202 78.358,18.42 78.358,18.668C78.358,18.956 78.423,19.212 78.552,19.436C78.682,19.66 78.88,19.828 79.146,19.94L80.248,20.432C80.751,20.648 81.129,20.958 81.383,21.362C81.638,21.766 81.765,22.268 81.765,22.868C81.765,23.364 81.673,23.804 81.489,24.188C81.306,24.572 81.053,24.874 80.731,25.094C80.409,25.314 80.036,25.424 79.612,25.424Z" style="fill:rgb(38,38,38);fill-rule:nonzero;"/>
        </g>
        <g transform="matrix(1,0,0,1,-6.61046,-8.75073)">
            <path d="M29.109,11.12C29.109,9.812 28.047,8.751 26.74,8.751L8.98,8.751C7.672,8.751 6.61,9.812 6.61,11.12L6.61,28.88C6.61,30.188 7.672,31.249 8.98,31.249L26.74,31.249C28.047,31.249 29.109,30.188 29.109,28.88L29.109,11.12ZM16.732,25.145L16.732,18.617L18.304,18.617L18.304,25.145L16.732,25.145ZM16.732,17.885L16.732,16.205L18.304,16.205L18.304,17.885L16.732,17.885Z" style="fill:rgb(41,47,62);"/>
        </g>
    </g>
</svg>
