<?xml version="1.0" encoding="UTF-8" standalone="no"?>
<!DOCTYPE svg PUBLIC "-//W3C//DTD SVG 1.1//EN" "http://www.w3.org/Graphics/SVG/1.1/DTD/svg11.dtd">
<svg width="100%" height="100%" viewBox="0 0 348 334" version="1.1" xmlns="http://www.w3.org/2000/svg" xmlns:xlink="http://www.w3.org/1999/xlink" xml:space="preserve" xmlns:serif="http://www.serif.com/" style="fill-rule:evenodd;clip-rule:evenodd;stroke-linejoin:round;stroke-miterlimit:2;">
    <g transform="matrix(1,0,0,1,-338.048,-440.952)">
        <g transform="matrix(1.29844,0,0,1,-144.542,0)">
            <path d="M371.669,704.735L404.126,704.735L404.126,712.223L377.879,712.223L377.879,734.687L402.278,734.687L402.278,742.175L377.879,742.175L377.879,772.703L371.669,772.703L371.669,704.735Z" style="fill-rule:nonzero;"/>
            <rect x="412.776" y="704.735" width="6.211" height="67.968" style="fill-rule:nonzero;"/>
            <path d="M456.842,716.735C455.807,714.559 454.426,712.975 452.701,711.983C450.976,710.991 449.177,710.495 447.304,710.495C445.924,710.495 444.568,710.719 443.238,711.167C441.907,711.615 440.712,712.287 439.652,713.183C438.592,714.079 437.742,715.263 437.101,716.735C436.46,718.207 436.14,719.935 436.14,721.919C436.14,723.455 436.325,724.815 436.694,725.999C437.064,727.183 437.668,728.255 438.506,729.215C439.344,730.175 440.477,731.071 441.907,731.903C443.336,732.735 445.086,733.567 447.156,734.399C449.177,735.231 451.136,736.127 453.034,737.087C454.932,738.047 456.607,739.263 458.062,740.735C459.516,742.207 460.674,744.047 461.536,746.255C462.399,748.463 462.83,751.231 462.83,754.559C462.83,757.951 462.313,760.895 461.278,763.391C460.243,765.887 458.875,767.951 457.174,769.583C455.474,771.215 453.515,772.431 451.297,773.231C449.078,774.031 446.786,774.431 444.421,774.431C442.893,774.431 441.365,774.255 439.837,773.903C438.309,773.551 436.842,773.007 435.437,772.271C434.033,771.535 432.714,770.575 431.482,769.391C430.25,768.207 429.19,766.751 428.303,765.023L433.626,759.359C434.76,761.855 436.337,763.743 438.358,765.023C440.379,766.303 442.523,766.943 444.79,766.943C446.121,766.943 447.464,766.687 448.82,766.175C450.175,765.663 451.395,764.911 452.479,763.919C453.564,762.927 454.451,761.695 455.141,760.223C455.831,758.751 456.176,757.055 456.176,755.135C456.176,753.023 455.905,751.311 455.363,749.999C454.821,748.687 453.983,747.551 452.849,746.591C451.715,745.631 450.286,744.767 448.561,743.999C446.836,743.231 444.815,742.335 442.498,741.311C440.625,740.543 438.9,739.663 437.323,738.671C435.746,737.679 434.378,736.463 433.219,735.023C432.061,733.583 431.149,731.855 430.484,729.839C429.818,727.823 429.486,725.407 429.486,722.591C429.486,719.327 429.979,716.479 430.964,714.047C431.95,711.615 433.281,709.583 434.957,707.951C436.633,706.319 438.53,705.087 440.65,704.255C442.769,703.423 444.987,703.007 447.304,703.007C450.261,703.007 452.96,703.599 455.4,704.783C457.84,705.967 460.021,708.031 461.943,710.975L456.842,716.735Z" style="fill-rule:nonzero;"/>
            <path d="M497.949,716.735C496.914,714.559 495.534,712.975 493.809,711.983C492.084,710.991 490.285,710.495 488.412,710.495C487.032,710.495 485.676,710.719 484.345,711.167C483.015,711.615 481.819,712.287 480.76,713.183C479.7,714.079 478.85,715.263 478.209,716.735C477.568,718.207 477.248,719.935 477.248,721.919C477.248,723.455 477.432,724.815 477.802,725.999C478.172,727.183 478.776,728.255 479.614,729.215C480.451,730.175 481.585,731.071 483.015,731.903C484.444,732.735 486.194,733.567 488.264,734.399C490.285,735.231 492.244,736.127 494.142,737.087C496.039,738.047 497.715,739.263 499.169,740.735C500.623,742.207 501.782,744.047 502.644,746.255C503.507,748.463 503.938,751.231 503.938,754.559C503.938,757.951 503.421,760.895 502.385,763.391C501.35,765.887 499.983,767.951 498.282,769.583C496.582,771.215 494.622,772.431 492.404,773.231C490.186,774.031 487.894,774.431 485.528,774.431C484,774.431 482.472,774.255 480.944,773.903C479.416,773.551 477.95,773.007 476.545,772.271C475.14,771.535 473.822,770.575 472.59,769.391C471.357,768.207 470.298,766.751 469.411,765.023L474.734,759.359C475.868,761.855 477.445,763.743 479.466,765.023C481.487,766.303 483.631,766.943 485.898,766.943C487.229,766.943 488.572,766.687 489.927,766.175C491.283,765.663 492.503,764.911 493.587,763.919C494.672,762.927 495.559,761.695 496.249,760.223C496.939,758.751 497.284,757.055 497.284,755.135C497.284,753.023 497.013,751.311 496.471,749.999C495.928,748.687 495.091,747.551 493.957,746.591C492.823,745.631 491.394,744.767 489.669,743.999C487.944,743.231 485.923,742.335 483.606,741.311C481.733,740.543 480.008,739.663 478.431,738.671C476.853,737.679 475.486,736.463 474.327,735.023C473.169,733.583 472.257,731.855 471.592,729.839C470.926,727.823 470.593,725.407 470.593,722.591C470.593,719.327 471.086,716.479 472.072,714.047C473.058,711.615 474.389,709.583 476.065,707.951C477.741,706.319 479.638,705.087 481.758,704.255C483.877,703.423 486.095,703.007 488.412,703.007C491.369,703.007 494.068,703.599 496.508,704.783C498.948,705.967 501.129,708.031 503.051,710.975L497.949,716.735Z" style="fill-rule:nonzero;"/>
            <rect x="514.215" y="704.735" width="6.211" height="67.968" style="fill-rule:nonzero;"/>
            <path d="M557.763,774.431C553.77,774.431 550.11,773.535 546.783,771.743C543.456,769.951 540.573,767.471 538.133,764.303C535.693,761.135 533.795,757.359 532.44,752.975C531.085,748.591 530.407,743.839 530.407,738.719C530.407,733.599 531.085,728.847 532.44,724.463C533.795,720.079 535.693,716.303 538.133,713.135C540.573,709.967 543.456,707.487 546.783,705.695C550.11,703.903 553.77,703.007 557.763,703.007C561.755,703.007 565.415,703.903 568.742,705.695C572.069,707.487 574.953,709.967 577.392,713.135C579.832,716.303 581.73,720.079 583.085,724.463C584.441,728.847 585.119,733.599 585.119,738.719C585.119,743.839 584.441,748.591 583.085,752.975C581.73,757.359 579.832,761.135 577.392,764.303C574.953,767.471 572.069,769.951 568.742,771.743C565.415,773.535 561.755,774.431 557.763,774.431ZM557.763,766.943C560.819,766.943 563.616,766.207 566.154,764.735C568.693,763.263 570.874,761.247 572.697,758.687C574.521,756.127 575.938,753.135 576.949,749.711C577.959,746.287 578.464,742.623 578.464,738.719C578.464,734.815 577.959,731.151 576.949,727.727C575.938,724.303 574.521,721.311 572.697,718.751C570.874,716.191 568.693,714.175 566.154,712.703C563.616,711.231 560.819,710.495 557.763,710.495C554.707,710.495 551.909,711.231 549.371,712.703C546.833,714.175 544.652,716.191 542.828,718.751C541.004,721.311 539.587,724.303 538.577,727.727C537.566,731.151 537.061,734.815 537.061,738.719C537.061,742.623 537.566,746.287 538.577,749.711C539.587,753.135 541.004,756.127 542.828,758.687C544.652,761.247 546.833,763.263 549.371,764.735C551.909,766.207 554.707,766.943 557.763,766.943Z" style="fill-rule:nonzero;"/>
            <path d="M595.1,704.735L602.937,704.735L633.25,761.183L633.398,761.183L633.398,704.735L639.609,704.735L639.609,772.703L631.771,772.703L601.458,716.255L601.31,716.255L601.31,772.703L595.1,772.703L595.1,704.735Z" style="fill-rule:nonzero;"/>
        </g>
        <g>
            <g transform="matrix(1,0,0,1,26.1179,36.0751)">
                <path d="M361.085,478.065L383.867,491.218L383.867,517.524L361.085,530.677L338.303,517.524L338.303,491.218L361.085,478.065Z" style="fill:rgb(235,235,235);"/>
            </g>
            <g transform="matrix(1,0,0,1,151.769,36.5496)">
                <path d="M361.085,478.065L383.867,491.218L383.867,517.524L361.085,530.677L338.303,517.524L338.303,491.218L361.085,478.065Z" style="fill:rgb(235,235,235);"/>
            </g>
            <g transform="matrix(1,0,0,1,151.391,-37.1129)">
                <path d="M361.085,478.065L383.867,491.218L383.867,517.524L361.085,530.677L338.303,517.524L338.303,491.218L361.085,478.065Z" style="fill:rgb(235,235,235);"/>
            </g>
            <g transform="matrix(1,0,0,1,92.0376,-1.47371)">
                <path d="M361.085,478.065L383.867,491.218L383.867,517.524L361.085,530.677L338.303,517.524L338.303,491.218L361.085,478.065Z"/>
            </g>
            <g transform="matrix(1,0,0,1,88.5115,74.546)">
                <path d="M361.085,478.065L383.867,491.218L383.867,517.524L361.085,530.677L338.303,517.524L338.303,491.218L361.085,478.065Z"/>
            </g>
            <g transform="matrix(1,0,0,1,149.717,115.119)">
                <path d="M361.085,478.065L383.867,491.218L383.867,517.524L361.085,530.677L338.303,517.524L338.303,491.218L361.085,478.065Z"/>
            </g>
            <g transform="matrix(1,0,0,1,216.713,75.0861)">
                <path d="M361.085,478.065L383.867,491.218L383.867,517.524L361.085,530.677L338.303,517.524L338.303,491.218L361.085,478.065Z"/>
            </g>
            <g transform="matrix(1,0,0,1,213.862,-1.54315)">
                <path d="M361.085,478.065L383.867,491.218L383.867,517.524L361.085,530.677L338.303,517.524L338.303,491.218L361.085,478.065Z"/>
            </g>
            <g transform="matrix(1,0,0,1,277.016,36.7695)">
                <path d="M361.085,478.065L383.867,491.218L383.867,517.524L361.085,530.677L338.303,517.524L338.303,491.218L361.085,478.065Z"/>
            </g>
        </g>
    </g>
</svg>
